<svg width="338" height="92" viewBox="0 0 338 92" fill="none" xmlns="http://www.w3.org/2000/svg">
<path d="M225.22 0V66.802C233.355 67.1853 241.469 67.6487 249.56 68.1953V82.3587C236.728 81.4919 223.882 80.8343 211.028 80.386V0H225.22ZM337.999 0.008L319.518 43.404L337.994 91.696L337.974 91.7047C332.587 90.9284 327.195 90.1899 321.798 89.4893L311.422 62.3853L300.948 86.9733C295.984 86.418 291.014 85.8933 286.032 85.4L304.048 43.1133L287.549 0.00866667H302.901L312.139 24.1313L322.411 0.008H337.999ZM162.32 79.684V0.00733333H201.937V14.298H176.512V32.818H195.749V46.9813H176.512V79.6813L162.32 79.684ZM109.326 14.2987V0.00666667H153.221V14.298H138.369V80.0713C133.632 80.198 128.9 80.346 124.178 80.5267V14.2987H109.326ZM60.8082 84.644V0.00933333H100.228V14.2993H74.9984V33.6567C80.7945 33.5813 89.0359 33.4967 94.1633 33.5087V47.6733C87.7452 47.5933 80.5003 47.7627 74.9984 47.818V69.2607C83.402 68.5899 91.8124 68.0077 100.228 67.514V81.6787C87.0728 82.4474 73.9311 83.4364 60.8082 84.6453V84.644ZM32.9682 51.9027L32.9675 0.00666667H47.1597V85.98C41.9717 86.52 36.793 87.0953 31.6241 87.7027L15.1894 39.8827V89.7507C10.4497 90.376 5.71922 91.0273 0.997925 91.708V0.008H14.4852L32.9675 51.9027H32.9682ZM261.269 83.2127V0.008H275.461V84.4C270.736 83.9733 266.007 83.58 261.269 83.2133V83.2127Z" fill="#DB202C"/>
</svg>
